<?xml version="1.0" encoding="utf-8"?>
<!-- Generator: Adobe Illustrator 25.0.0, SVG Export Plug-In . SVG Version: 6.00 Build 0)  -->
<svg class="creativelogo" version="1.1" id="Layer_1" xmlns="http://www.w3.org/2000/svg" xmlns:xlink="http://www.w3.org/1999/xlink" x="0px" y="0px"
	viewBox="0 0 594 468" style="enable-background:new 0 0 594 468;" xml:space="preserve">
<style type="text/css">
	.st0{fill:#F1593C;}
	.st1{fill:#0F5576;}
</style>
<path class="st0" d="M146.3,268.5c-0.1,1.3-15.3,0.8-17.1,0.7l0-16.3c0-0.9-0.6-1.7-1.5-1.9C78.8,237.6,30.1,199,25.4,144.6
	c-3.7-43.5,22.4-81.8,58.4-103.7c44.7-27.2,98.9-32.5,148.6-17.5c51.2,15.5,93.6,55,96.9,111.1c0.1,1.1-0.8,2-1.8,2.1c0,0,0,0-0.1,0
	l-13.9,0.4c-0.3,0-0.5-0.2-0.5-0.5c-8.6-89.7-106-122.6-181.8-101c-15.3,4.3-29.4,11-42.5,19.9c-50.3,34.4-64.3,99.6-19.5,145.7
	c20.4,21,47.7,34.2,76.2,40c0.4,0.1,0.5,0.3,0.5,0.6L146.3,268.5z"/>
<path class="st0" d="M454.6,157.6c0,0.5-0.4,1-1,1l0,0l-16,0.4c-0.5,0-1-0.4-1-1v0l-0.3-15c0-0.5,0.4-1,1-1l0,0l16-0.4
	c0.5,0,1,0.4,1,1v0L454.6,157.6z"/>
<path class="st0" d="M414.8,240l9.6,1c0.4,0,0.6,0.3,0.6,0.6v9c0,0.3-0.1,0.4-0.4,0.5c-7.5,1.9-14.3,2-20.4,0.2
	c-9.9-2.9-9.6-10.7-9.6-20.5c0.1-15.4,1.4-31.3,0-46.6c-0.1-0.7-0.6-1.2-1.3-1.2l-9,0c-0.4,0-0.6-0.2-0.6-0.6v-11.3
	c0-0.3,0.2-0.5,0.5-0.5l9.4-0.9c0.4,0,0.6-0.3,0.6-0.7l0.4-17c0-0.9,0.5-1.4,1.5-1.4h14.9c1.1,0,1.7,0.6,1.7,1.7l0.3,15.5
	c0,1.3,1.1,2.3,2.3,2.3h10c0.3,0,0.5,0.2,0.5,0.5v11.2c0,0.4-0.3,0.7-0.7,0.8l-11,0.6c-0.9,0-1.6,0.8-1.6,1.6
	c0,15.5-0.1,31.2-0.1,47c0,2.8,0.6,5.4,1.8,7.9C414.4,239.8,414.6,240,414.8,240z"/>
<path class="st0" d="M256.6,185.5c4.4-16.1,21.9-18.3,35.5-15.4c20.7,4.5,19.9,27.5,17.9,43.5c-0.1,0.5-0.5,0.8-0.9,0.8h-34.8
	c-0.7,0-1.2,0.5-1.3,1.1c-1.5,8.4-1.7,28.5,12.9,24.2c5.6-1.7,7.2-6.6,7-11.8c0-0.4,0.3-0.8,0.7-0.8c0,0,0,0,0,0h15.7
	c0.3,0,0.6,0.3,0.6,0.6c1,15.4-8.9,23.1-23.3,24.6c-10,1-24-1.8-29-11.6c-1.3-2.5-2.2-6.5-2.5-12C254,215.3,253.1,198.6,256.6,185.5
	z M274.7,203.2l16.3,0.1c1,0,1.7-0.8,1.7-1.7c0,0,0,0,0,0l0-10.5c0-5-4-9.1-8.9-9.1c0,0,0,0,0,0H282c-4.9,0-8.9,4-9,9l0,10.5
	C273,202.4,273.8,203.2,274.7,203.2z"/>
<path class="st0" d="M358.6,247.3c0-0.1-0.1-0.1-0.2-0.1c0,0-0.1,0-0.1,0c-6.1,5-12.9,6.8-20.2,5.6c-14.2-2.5-18.6-15.4-16.6-28
	c2.8-17.7,19.8-20.9,34.9-20.9c0.7,0,1.2-0.3,1.3-1c0.9-4.5,1-9.3,0-14.2c-1.2-6.2-9.9-8-13.5-3.2c-1.4,1.9-1.8,5.2-2.4,7.7
	c-0.1,0.3-0.4,0.6-0.7,0.6h-15.2c-0.8,0-1.4-0.6-1.5-1.3c-1.9-25.4,41.8-29.4,50.1-9.8c1,2.2,1.4,5.8,1.4,10.7c0,19.3,0,38.5,0,57.7
	c0,0.5-0.4,1-1,1h0h-15.2c-0.4,0-0.7-0.3-0.7-0.6L358.6,247.3z M357,215.3c-11.1-2.4-21.8,5.9-18.6,17.2
	c2.8,10.1,16.7,10.2,18.9-0.4c1.1-5.4,1.2-10.9,0.2-16.4C357.4,215.5,357.3,215.3,357,215.3z"/>
<path class="st0" d="M540.2,177.7c6.8-8.3,19.4-9.4,29-7.5c23.2,4.4,20.7,26.4,19.8,43.8c0,0.5-0.4,0.9-0.9,0.9h-35.3
	c-0.5,0-0.9,0.4-0.9,0.8c-0.8,7.6-2.2,27,11.3,24.7c5.9-1,8.7-5,8.4-11.9c0-0.4,0.2-0.6,0.5-0.6c5.6-0.2,10.3-0.3,14.1-0.3
	c2.5,0,3.3,1.6,3.1,3.9c-1.2,12.4-9.1,19-20.7,20.8c-17.2,2.8-33-2.1-34.3-22c-0.6-8.5-0.7-17.9-0.5-28.1
	C533.7,193,534.4,184.7,540.2,177.7z M553.4,203.2l16.7,0c0.9,0,1.6-0.7,1.6-1.6l0-10.3c0-5.2-4.2-9.4-9.4-9.4h-1.2
	c-5.2,0-9.4,4.2-9.4,9.3c0,0,0,0,0,0l0,10.3C551.7,202.5,552.5,203.2,553.4,203.2C553.4,203.2,553.4,203.2,553.4,203.2z"/>
<path class="st0" d="M225.7,268.5l-0.3,0.3c-0.1,0.2-0.3,0.3-0.5,0.2l-16.4,0.1l0-96.6c0-1.2,1-2.2,2.2-2.2c0,0,0.1,0,0.1,0
	c3.9,0.2,7.6,0.4,11.1,0.3c3.1,0,3.2,6.3,4.2,8.6c0.2,0.4,0.4,0.5,0.7,0.1c4.8-6.6,11.4-9.8,19.8-9.7c0.3,0,0.6,0.3,0.6,0.6v16.1
	c0,0.3-0.2,0.5-0.5,0.6c-3.8,0.6-8.3,1-11.5,2.5c-9.6,4.6-10.1,12.3-9.8,22.9C225.7,231.1,225.9,249.8,225.7,268.5z"/>
<path class="st0" d="M496.6,232.1c-0.1-1.8,0-3.7,0.4-5.8c3.6-18.4,7.6-36.7,11.9-55c0.1-0.5,0.6-0.9,1.1-0.9h15.5
	c1,0,1.4,0.5,1.2,1.5l-21.1,79.2c-0.1,0.3-0.4,0.6-0.7,0.6h-19.4c-0.3,0-0.5-0.2-0.6-0.4L464.4,172c-0.2-0.6,0.2-1.2,0.8-1.4
	c0.1,0,0.2,0,0.3,0l17.2-0.4c0.5,0,0.9,0.3,1,0.8l12.4,61.2c0,0.1,0.2,0.2,0.3,0.2C496.5,232.3,496.6,232.2,496.6,232.1z"/>
<path class="st0" d="M454.2,250.5c0,0.5-0.4,1-1,1l0,0h-16c-0.5,0-1-0.4-1-1l0,0v-79c0-0.5,0.4-1,1-1l0,0h16c0.5,0,1,0.4,1,1l0,0
	V250.5z"/>
<path class="st1" d="M146.3,268.5c0.1,0.1,0.1,0.2,0.2,0.3c0.1,0.2,0.3,0.3,0.5,0.3l61.4,0.1l16.4-0.1c0.2,0,0.4-0.1,0.5-0.2
	l0.3-0.3c0,0.1,0,0.2,0,0.3c0,0.3,0.2,0.4,0.5,0.4h39.6c0.2,0,0.4,0.2,0.4,0.4l2.5,51.7c0,0.3-0.3,0.6-0.6,0.7c0,0,0,0,0,0h-17.6
	c-0.3,0-0.5-0.2-0.6-0.5l-7.4-37.1c-0.1-0.3-0.3-0.5-0.6-0.5h-49.7c-0.4,0-0.8,0.4-0.8,0.8c-0.7,55.7-0.7,111.5,0,167.2
	c0,0.5,0.4,0.8,0.8,0.9l33.2,3.1c0.3,0,0.4,0.2,0.4,0.5l-0.2,11.5h-98.6l-0.1-11.3c0-0.4,0.2-0.7,0.6-0.7l32.6-3.1
	c0.3,0,0.6-0.3,0.6-0.6c0.6-55.7,1.4-111.9-0.2-167.6c0-0.4-0.2-0.6-0.7-0.6h-49.9c-0.4,0-0.7,0.2-0.8,0.7l-7.4,36.9
	c-0.1,0.3-0.3,0.4-0.5,0.4H83.9c-0.3,0-0.6-0.3-0.6-0.6c0,0,0,0,0,0l2.5-51.8c0-0.3,0.1-0.4,0.4-0.4l43.1,0
	C131,269.2,146.2,269.8,146.3,268.5z"/>
</svg>
